<?xml version="1.0" encoding="utf-8"?>
<!-- Generator: Adobe Illustrator 23.0.3, SVG Export Plug-In . SVG Version: 6.00 Build 0)  -->
<svg version="1.1" id="Layer_1" xmlns="http://www.w3.org/2000/svg" xmlns:xlink="http://www.w3.org/1999/xlink" x="0px" y="0px"
	 viewBox="0 0 595.28 595.28" style="enable-background:new 0 0 595.28 595.28;" xml:space="preserve">
<style type="text/css">
	.st0{fill:#27AAE1;}
	.st1{fill:#F26D79;}
	.st2{fill:#FBB040;}
	.st3{fill:#46A480;}
</style>
<g>
	<path class="st1" d="M357.17,289.02c0-157.97-58.86-261.43-58.86-261.43s-58.86,103.46-58.86,261.43
		c0,100.01,10.56,197.89,26.57,256.25l32.3-32.3l32.3,32.3C346.6,486.92,357.17,389.04,357.17,289.02z M337.75,204.72
		c1.46,0.25,2.8,1.06,3.5,2.36c1.32,2.45-0.37,4.77-2.46,5.74c-0.68,0.31-1.4,0.51-2.14,0.64c-0.77,0.14-1.08,1.1-0.53,1.65
		c1.09,1.08,1.75,2.62,1.65,4.15c-0.16,2.46-2.24,4.66-4.69,4.95c-1.45,0.17-2.93-0.33-4.06-1.26c-0.54-0.44-1.35-0.09-1.38,0.61
		c-0.03,0.9-0.26,1.73-0.91,2.41c-1.35,1.42-3.78,1.7-5.34,0.53c-0.86-0.65-1.36-1.72-1.41-2.79c-0.04-0.76-0.87-1.23-1.54-0.89
		c-1.49,0.75-3.05,0.94-4.56-0.64c-0.84-0.87-1.4-2-1.52-3.21c-0.24-2.43,1.15-4.6,3.11-5.85c0.56-0.35,0.65-1.13,0.16-1.57
		c-1.7-1.55-2.96-3.61-3.12-5.88c-0.19-2.75,1.64-5.71,4.36-6.17c1.63-0.28,3.33,0.64,4.24,1.97c0.44,0.65,1.39,0.61,1.73-0.1
		c0.87-1.77,2.06-3.32,3.92-4.2c1.17-0.55,2.55-0.64,3.76-0.19c2.73,1.03,3,3.76,2.18,5.89c-0.13,0.33-0.27,0.64-0.44,0.95
		c-0.43,0.8,0.37,1.68,1.23,1.38C334.87,204.73,336.29,204.47,337.75,204.72z M313.92,172.63c-1.29-1.18-2.25-2.74-2.37-4.47
		c-0.14-2.09,1.25-4.34,3.31-4.69c1.24-0.21,2.53,0.48,3.22,1.5c0.33,0.49,1.05,0.46,1.32-0.07c0.66-1.34,1.56-2.53,2.98-3.19
		c0.89-0.42,1.93-0.49,2.86-0.14c2.07,0.78,2.28,2.86,1.66,4.47c-0.1,0.25-0.21,0.49-0.33,0.72c-0.33,0.61,0.28,1.28,0.93,1.05
		c1.04-0.36,2.12-0.56,3.24-0.37c1.11,0.19,2.13,0.8,2.66,1.79c1,1.86-0.28,3.63-1.87,4.36c-0.52,0.24-1.07,0.39-1.63,0.49
		c-0.58,0.1-0.82,0.84-0.41,1.25c0.83,0.82,1.33,1.99,1.25,3.16c-0.12,1.87-1.7,3.54-3.56,3.76c-1.1,0.13-2.23-0.25-3.08-0.96
		c-0.41-0.34-1.03-0.07-1.05,0.46c-0.02,0.68-0.2,1.31-0.69,1.83c-1.03,1.08-2.87,1.29-4.06,0.4c-0.66-0.49-1.03-1.3-1.07-2.12
		c-0.03-0.58-0.66-0.94-1.17-0.68c-1.13,0.57-2.32,0.72-3.47-0.49c-0.64-0.66-1.07-1.52-1.16-2.44c-0.18-1.85,0.87-3.5,2.37-4.45
		C314.23,173.56,314.29,172.97,313.92,172.63z M298.3,60.62c2.13,0,3.96,58.95,4.71,142.36c0.02,2.59-2.07,4.7-4.66,4.7h-0.09
		c-2.59,0-4.68-2.11-4.66-4.7C294.34,119.57,296.17,60.62,298.3,60.62z M290.53,237.79c-1.7-1.55-2.96-3.61-3.12-5.88
		c-0.19-2.75,1.64-5.71,4.36-6.17c1.63-0.28,3.33,0.64,4.24,1.97c0.44,0.65,1.39,0.61,1.73-0.1c0.87-1.77,2.06-3.32,3.92-4.2
		c1.17-0.55,2.55-0.64,3.76-0.19c2.73,1.03,3,3.76,2.18,5.89c-0.13,0.33-0.27,0.64-0.44,0.95c-0.43,0.8,0.37,1.68,1.23,1.38
		c1.37-0.48,2.79-0.74,4.26-0.49c1.46,0.25,2.8,1.06,3.5,2.36c1.32,2.45-0.37,4.77-2.46,5.74c-0.68,0.31-1.4,0.51-2.14,0.64
		c-0.77,0.14-1.09,1.1-0.53,1.65c1.09,1.08,1.75,2.62,1.65,4.15c-0.16,2.46-2.24,4.66-4.69,4.95c-1.45,0.17-2.93-0.33-4.06-1.26
		c-0.54-0.44-1.35-0.09-1.38,0.61c-0.03,0.9-0.26,1.73-0.91,2.41c-1.35,1.42-3.78,1.7-5.34,0.53c-0.86-0.65-1.36-1.72-1.41-2.79
		c-0.04-0.76-0.87-1.23-1.54-0.89c-1.49,0.75-3.05,0.94-4.56-0.64c-0.84-0.87-1.4-2-1.52-3.21c-0.24-2.43,1.15-4.6,3.11-5.85
		C290.93,239.01,291.02,238.24,290.53,237.79z M263.87,169.59c-1.41-1.29-2.46-3-2.59-4.89c-0.16-2.29,1.36-4.74,3.63-5.13
		c1.36-0.23,2.77,0.53,3.52,1.64c0.37,0.54,1.15,0.51,1.44-0.08c0.72-1.47,1.71-2.76,3.26-3.49c0.98-0.46,2.12-0.54,3.13-0.16
		c2.27,0.86,2.5,3.13,1.82,4.9c-0.1,0.27-0.23,0.53-0.37,0.79c-0.36,0.66,0.31,1.4,1.02,1.15c1.14-0.4,2.32-0.61,3.54-0.41
		c1.21,0.2,2.33,0.88,2.91,1.96c1.1,2.03-0.3,3.97-2.05,4.77c-0.57,0.26-1.17,0.43-1.78,0.54c-0.64,0.11-0.9,0.92-0.44,1.37
		c0.91,0.9,1.45,2.18,1.37,3.45c-0.13,2.05-1.86,3.87-3.9,4.12c-1.21,0.15-2.44-0.27-3.37-1.05c-0.45-0.37-1.12-0.07-1.14,0.5
		c-0.03,0.75-0.22,1.44-0.76,2c-1.12,1.18-3.14,1.42-4.44,0.44c-0.72-0.54-1.13-1.43-1.17-2.32c-0.03-0.63-0.72-1.03-1.28-0.74
		c-1.24,0.63-2.53,0.78-3.79-0.53c-0.7-0.73-1.17-1.67-1.26-2.67c-0.2-2.02,0.95-3.83,2.59-4.87
		C264.2,170.6,264.28,169.96,263.87,169.59z M262.69,215.53c-1.41-1.29-2.46-3-2.59-4.89c-0.16-2.29,1.36-4.74,3.63-5.13
		c1.36-0.23,2.77,0.53,3.52,1.64c0.37,0.54,1.15,0.51,1.44-0.08c0.72-1.47,1.71-2.76,3.26-3.49c0.98-0.46,2.12-0.54,3.13-0.16
		c2.27,0.86,2.5,3.13,1.82,4.9c-0.1,0.27-0.23,0.53-0.37,0.79c-0.36,0.66,0.31,1.4,1.02,1.15c1.14-0.4,2.32-0.61,3.54-0.41
		c1.21,0.2,2.33,0.88,2.91,1.96c1.1,2.03-0.3,3.97-2.05,4.77c-0.57,0.26-1.17,0.43-1.78,0.54c-0.64,0.11-0.9,0.92-0.44,1.37
		c0.91,0.9,1.45,2.18,1.37,3.45c-0.13,2.05-1.86,3.87-3.9,4.12c-1.21,0.14-2.44-0.27-3.37-1.05c-0.45-0.37-1.12-0.07-1.14,0.5
		c-0.03,0.75-0.22,1.44-0.76,2c-1.12,1.18-3.14,1.42-4.44,0.44c-0.72-0.54-1.13-1.43-1.17-2.32c-0.03-0.63-0.72-1.03-1.28-0.74
		c-1.24,0.63-2.53,0.78-3.79-0.53c-0.7-0.73-1.17-1.67-1.26-2.67c-0.2-2.02,0.95-3.83,2.59-4.87
		C263.02,216.54,263.1,215.9,262.69,215.53z M246.28,265.04c3.38-2.78,6.83-5.54,11.27-6.75c5.94-1.61,12.52-0.07,18.11,2.21
		c5.58,2.29,10.71,5.34,16.62,7.03c5.91,1.69,13.12,1.75,17.84-1.55c3.25-2.27,4.85-5.78,8.17-7.99c4.98-3.31,12.49-2.77,18.4-0.65
		c5.16,1.85,9.66,4.69,14.58,6.9v9.21c-6.46-2.3-12.92-5.61-19.85-5.35c-11.17,0.42-19.3,9.89-30.46,10.4
		c-11.9,0.54-21.25-9.28-33.17-9.64c-7.89-0.24-14.66,3.66-21.51,7.24V265.04z M246.28,291.98c3.38-2.78,6.83-5.54,11.27-6.75
		c5.94-1.61,12.52-0.07,18.11,2.22c5.58,2.29,10.71,5.34,16.62,7.03c5.91,1.69,13.12,1.75,17.84-1.55c3.25-2.27,4.85-5.78,8.17-7.99
		c4.98-3.31,12.49-2.77,18.4-0.65c5.16,1.85,9.66,4.69,14.58,6.9v9.21c-6.46-2.3-12.92-5.61-19.85-5.35
		c-11.17,0.42-19.3,9.89-30.46,10.4c-11.9,0.54-21.25-9.28-33.17-9.64c-7.89-0.24-14.66,3.66-21.51,7.24V291.98z M246.28,318.93
		c3.38-2.78,6.83-5.54,11.27-6.75c5.94-1.61,12.52-0.07,18.11,2.21c5.58,2.29,10.71,5.34,16.62,7.03
		c5.91,1.69,13.12,1.75,17.84-1.55c3.25-2.27,4.85-5.78,8.17-7.99c4.98-3.31,12.49-2.77,18.4-0.65c5.16,1.85,9.66,4.69,14.58,6.9
		v9.21c-6.46-2.3-12.92-5.61-19.85-5.35c-11.17,0.42-19.3,9.89-30.46,10.4c-11.9,0.54-21.25-9.28-33.17-9.64
		c-7.89-0.24-14.66,3.66-21.51,7.24V318.93z M255.55,368.26l-1.93-23.93c0,0,22.39,6.56,23.55,6.56
		C278.32,350.89,256.32,367.11,255.55,368.26z M277.93,362.47l1.54,42.85l-26.63-16.98L277.93,362.47z M282.18,427.32l-11.97,17.37
		l-11.19-39.37L282.18,427.32z M260.95,466.31l19.3-15.05l0.39,3.47l5.02,44.39L260.95,466.31z M301.73,494.46
		c-0.04,1.76-1.55,3.16-3.39,3.16h-0.07c-1.84,0-3.35-1.4-3.39-3.16c-0.93-36.5-1.54-87.69-1.63-144.96c0-2.64,2.24-4.79,5-4.79h0.1
		c2.77,0,5.01,2.15,5,4.79C303.27,406.77,302.66,457.96,301.73,494.46z"/>
	<path class="st0" d="M131.11,514.84c-8.56-10.2-12.61-24.65-8.47-37.31c0.9-2.75,2.22-5.46,4.41-7.34c2.2-1.88,5.42-2.76,8.06-1.61
		c2.55,1.12,4.07,3.86,4.57,6.6c0.49,2.74,0.15,5.56,0,8.34c-1.03,19.83,8.98,39.87,25.45,50.95
		C152.19,531.34,139.67,525.05,131.11,514.84z M239.04,493.57c5.28,3.89,8.74,10.16,9.19,16.7c-3.5-5.88-11.08-8.09-17.91-7.73
		c-6.83,0.37-13.38,2.76-20.13,3.87c-6.75,1.11-14.31,0.72-19.52-3.72c10.87-0.55,19.08-10.45,29.68-12.95
		C226.74,488.25,233.76,489.69,239.04,493.57z M292.32,534.34c1.78,11.89-6.28,23.88-17.23,28.83c-10.95,4.95-23.96,3.72-35.02-0.98
		c-7.27-3.09-14.44-7.7-22.32-7.08c-8.1,0.63-14.63,6.64-22.08,9.88c-10.51,4.57-23.35,3.27-32.74-3.31
		c-4.64-3.25-8.41-7.64-13.16-10.72c-4.75-3.08-11.16-4.67-16.01-1.75c4.6-8.9,16.02-13.6,25.56-10.53
		c5.78,1.86,10.6,6.12,16.47,7.67c10.01,2.65,20.12-3.05,29.04-8.32c8.91-5.28,19.46-10.52,29.19-6.98
		c8.03,2.92,12.96,11,20.17,15.58c6.43,4.08,14.69,5.14,21.93,2.81C283.39,547.08,289.48,541.4,292.32,534.34z M196.47,532.64
		c11.99-2.31,21.9-10.09,33.79-11.88c8.19-1.23,17.52,0.94,22.28,7.71c-0.98-11.58-12.61-21.15-24.17-19.87
		c-7.49,0.83-14.08,5.44-21.5,6.74c-9.7,1.69-20.21-3.01-25.39-11.38c-5.19-8.37-4.73-19.87,1.1-27.81
		c4.22-5.74,11.88-9.58,18.58-7.18c2.72,0.97,5.05,2.86,7.79,3.77c5.18,1.72,11.17-0.52,14.66-4.72c3.48-4.19,4.65-9.99,3.99-15.4
		c-3.5-28.73-42.46-29.53-60.75-15.45c-9.78,7.53-16.24,18.96-18.65,31.06c-2.59,13.03-0.32,28.44,5,40.61
		C160.9,526.45,177.31,536.34,196.47,532.64z M164.88,446.92c9.97-10.36,26.06-14.35,39.71-9.83c2.67,0.88,5.38,2.18,6.91,4.53
		c1.53,2.36,1.33,6-1.05,7.49c-1.07,0.67-2.39,0.81-3.65,0.69c-2.79-0.27-5.29-1.72-7.92-2.69c-10.59-3.93-23.08,0.42-30.74,8.73
		c-7.66,8.31-11.02,19.85-11.55,31.14C151.55,473.51,154.9,457.28,164.88,446.92z M464.17,514.84c-8.56,10.2-21.08,16.5-34.02,19.64
		c16.47-11.08,26.48-31.13,25.45-50.95c-0.15-2.78-0.49-5.6,0-8.34c0.49-2.74,2.01-5.49,4.57-6.6c2.65-1.16,5.87-0.27,8.06,1.61
		c2.2,1.88,3.51,4.59,4.41,7.34C476.78,490.19,472.73,504.64,464.17,514.84z M347.05,510.28c0.46-6.54,3.91-12.82,9.19-16.7
		c5.28-3.89,12.3-5.32,18.68-3.81c10.6,2.5,18.81,12.4,29.68,12.95c-5.21,4.43-12.77,4.83-19.52,3.72
		c-6.75-1.11-13.3-3.51-20.13-3.87C358.13,502.18,350.54,504.4,347.05,510.28z M461.51,549.2c-4.85-2.92-11.26-1.33-16.01,1.75
		c-4.75,3.08-8.52,7.47-13.16,10.72c-9.38,6.58-22.23,7.88-32.74,3.31c-7.45-3.24-13.98-9.24-22.08-9.88
		c-7.87-0.62-15.05,3.99-22.32,7.08c-11.06,4.7-24.07,5.93-35.02,0.98c-10.95-4.95-19.01-16.94-17.23-28.83
		c2.84,7.06,8.93,12.74,16.18,15.07c7.25,2.33,15.51,1.28,21.93-2.81c7.22-4.58,12.14-12.67,20.17-15.58
		c9.74-3.53,20.28,1.71,29.19,6.98c8.91,5.28,19.02,10.97,29.04,8.32c5.87-1.55,10.69-5.81,16.47-7.67
		C445.48,535.6,456.9,540.3,461.51,549.2z M386.34,472.75c2.74-0.91,5.07-2.8,7.79-3.77c6.7-2.4,14.37,1.44,18.58,7.18
		c5.83,7.93,6.28,19.44,1.1,27.81c-5.19,8.37-15.7,13.08-25.39,11.38c-7.42-1.3-14.01-5.91-21.5-6.74
		c-11.55-1.28-23.19,8.28-24.17,19.87c4.76-6.78,14.09-8.95,22.28-7.71c11.88,1.79,21.8,9.56,33.79,11.88
		c19.16,3.7,35.57-6.19,43.28-23.79c5.33-12.17,7.59-27.58,5-40.61c-2.41-12.1-8.87-23.53-18.65-31.06
		c-18.28-14.08-57.24-13.28-60.75,15.45c-0.66,5.41,0.51,11.21,3.99,15.4C375.17,472.23,381.16,474.47,386.34,472.75z
		 M383.79,441.62c1.53-2.36,4.24-3.65,6.91-4.53c13.65-4.52,29.74-0.54,39.71,9.83c9.97,10.36,13.33,26.59,8.28,40.06
		c-0.53-11.29-3.89-22.83-11.55-31.14c-7.66-8.31-20.15-12.66-30.74-8.73c-2.62,0.97-5.13,2.42-7.92,2.69
		c-1.25,0.12-2.58-0.02-3.65-0.69C382.46,447.63,382.26,443.98,383.79,441.62z"/>
</g>
</svg>
